<svg width="28" height="25" viewBox="0 0 28 25" fill="none" xmlns="http://www.w3.org/2000/svg">
<path fill-rule="evenodd" clip-rule="evenodd" d="M10.834 13.7398C10.834 11.8801 12.2205 10.4878 13.9805 10.4878C15.7977 10.4878 17.1668 11.8877 17.1668 13.7398C17.1668 15.5945 15.8002 16.9919 13.9805 16.9919C12.238 16.9919 10.834 15.6174 10.834 13.7398ZM9.16113 13.7398C9.16113 16.5015 11.2372 18.6992 13.9805 18.6992C16.7063 18.6992 18.8397 16.5218 18.8397 13.7398C18.8397 10.9604 16.7063 8.78049 13.9805 8.78049C11.2472 8.78049 9.16113 10.968 9.16113 13.7398ZM7.48828 13.7398C7.48828 10.0254 10.351 7.07317 13.9805 7.07317C17.6074 7.07317 20.5125 10.0229 20.5125 13.7398C20.5125 17.4466 17.6174 20.4065 13.9805 20.4065C10.3411 20.4065 7.48828 17.4441 7.48828 13.7398ZM4.0625 8.82114C4.0625 8.05894 4.66741 7.43903 5.4167 7.43903C6.1635 7.43903 6.77089 8.05894 6.77089 8.82114C6.77089 9.59604 6.15354 10.1626 5.4167 10.1626C4.6923 10.1626 4.0625 9.60874 4.0625 8.82114ZM18.4808 5.24391L17.6046 3.08944C17.2162 2.01728 16.6885 1.70732 15.5334 1.70732H12.4666C11.3165 1.70732 10.7813 2.01474 10.3955 3.08944L9.51922 5.24391H7.04981C3.54981 5.24391 1.67285 7.14177 1.67285 10.7317V17.8049C1.67285 21.2881 3.44774 23.2927 7.04981 23.2927H20.9502C24.3457 23.2927 26.3272 21.499 26.3272 17.8049V10.7317C26.3272 7.26372 24.5672 5.24391 20.9502 5.24391H18.4808ZM19.6757 3.53659H20.9502C25.3862 3.53659 28 5.92988 28 10.7317V17.8049C28 20.1372 27.3951 21.9182 26.1878 23.1504C24.9804 24.3826 23.2329 25 20.9502 25H7.04979C2.63371 25 0 22.6296 0 17.8049V10.7317C0 6.20427 2.34495 3.53659 7.04979 3.53659H8.32432L8.72262 2.52033C9.43457 0.619919 10.4826 0 12.4666 0H15.5334C17.5523 0 18.5754 0.645325 19.2774 2.52033L19.6757 3.53659Z" fill="#333333"/>
</svg>
